<svg xmlns="http://www.w3.org/2000/svg" xmlns:xlink="http://www.w3.org/1999/xlink" width="512" zoomAndPan="magnify" viewBox="0 0 384 383.999986" height="512" preserveAspectRatio="xMidYMid meet" version="1.0"><defs><g/><clipPath id="b5467deea4"><path d="M 156 93 L 313.765625 93 L 313.765625 162 L 156 162 Z M 156 93 " clip-rule="nonzero"/></clipPath><clipPath id="c6486cb303"><path d="M 70.765625 92.304688 L 159 92.304688 L 159 162.804688 L 70.765625 162.804688 Z M 70.765625 92.304688 " clip-rule="nonzero"/></clipPath></defs><rect x="-38.4" width="460.8" fill="#ffffff" y="-38.399999" height="460.799983" fill-opacity="1"/><rect x="-38.4" width="460.8" fill="#213644" y="-38.399999" height="460.799983" fill-opacity="1"/><g clip-path="url(#b5467deea4)"><path fill="#c6ab7c" d="M 313.589844 161.628906 L 227.816406 93.542969 L 156.128906 93.542969 L 241.902344 161.628906 Z M 313.589844 161.628906 " fill-opacity="1" fill-rule="nonzero"/></g><g clip-path="url(#c6486cb303)"><path fill="#c6ab7c" d="M 71.976562 162.691406 C 71.664062 162.691406 71.351562 162.554688 71.140625 162.289062 C 70.777344 161.828125 70.851562 161.164062 71.308594 160.796875 L 157.082031 92.710938 C 157.542969 92.347656 158.214844 92.425781 158.570312 92.882812 C 158.9375 93.34375 158.859375 94.007812 158.402344 94.371094 L 72.632812 162.457031 C 72.441406 162.617188 72.207031 162.691406 71.976562 162.691406 Z M 71.976562 162.691406 " fill-opacity="1" fill-rule="nonzero"/></g><path fill="#c6ab7c" d="M 138.75 144.878906 L 152.925781 144.878906 L 152.925781 159.054688 L 138.75 159.054688 Z M 138.75 144.878906 " fill-opacity="1" fill-rule="nonzero"/><path fill="#c6ab7c" d="M 159.335938 144.878906 L 173.511719 144.878906 L 173.511719 159.054688 L 159.335938 159.054688 Z M 159.335938 144.878906 " fill-opacity="1" fill-rule="nonzero"/><path fill="#c6ab7c" d="M 138.75 125.226562 L 152.925781 125.226562 L 152.925781 139.402344 L 138.75 139.402344 Z M 138.75 125.226562 " fill-opacity="1" fill-rule="nonzero"/><path fill="#c6ab7c" d="M 159.335938 125.226562 L 173.511719 125.226562 L 173.511719 139.402344 L 159.335938 139.402344 Z M 159.335938 125.226562 " fill-opacity="1" fill-rule="nonzero"/><path fill="#c6ab7c" d="M 118.070312 125.226562 L 103.890625 135.988281 L 103.890625 103.527344 L 118.070312 103.527344 Z M 118.070312 125.226562 " fill-opacity="1" fill-rule="nonzero"/><g fill="#c6ab7c" fill-opacity="1"><g transform="translate(66.097906, 227.130942)"><g><path d="M 6.085938 0 L 9.589844 0 L 9.589844 -24.503906 L 47.105469 -24.503906 L 47.105469 0 L 50.605469 0 L 50.605469 -53.269531 L 47.105469 -53.269531 L 47.105469 -27.929688 L 9.589844 -27.929688 L 9.589844 -53.269531 L 6.085938 -53.269531 Z M 6.085938 0 "/></g></g></g><g fill="#c6ab7c" fill-opacity="1"><g transform="translate(128.87103, 227.130942)"><g><path d="M 30.742188 0.914062 C 46.117188 0.914062 57.378906 -10.5 57.378906 -26.558594 C 57.378906 -42.613281 46.117188 -54.105469 30.742188 -54.105469 C 15.449219 -54.105469 4.183594 -42.613281 4.183594 -26.558594 C 4.183594 -10.5 15.449219 0.914062 30.742188 0.914062 Z M 30.742188 -2.433594 C 17.425781 -2.433594 7.6875 -12.480469 7.6875 -26.558594 C 7.6875 -40.636719 17.425781 -50.757812 30.742188 -50.757812 C 44.136719 -50.757812 53.878906 -40.636719 53.878906 -26.558594 C 53.878906 -12.480469 44.136719 -2.433594 30.742188 -2.433594 Z M 30.742188 -2.433594 "/></g></g></g><g fill="#c6ab7c" fill-opacity="1"><g transform="translate(196.58978, 227.130942)"><g><path d="M 2.359375 0 L 5.9375 0 L 15.601562 -43.527344 L 16.054688 -43.527344 L 31.886719 -7.382812 L 33.332031 -7.382812 L 49.082031 -43.527344 L 49.617188 -43.527344 L 59.28125 0 L 62.855469 0 L 51.214844 -54.105469 L 49.617188 -54.105469 L 32.875 -15.449219 L 32.339844 -15.449219 L 15.601562 -54.105469 L 14.003906 -54.105469 Z M 2.359375 0 "/></g></g></g><g fill="#c6ab7c" fill-opacity="1"><g transform="translate(267.960688, 227.130942)"><g><path d="M 6.085938 0 L 45.734375 0 L 45.734375 -3.347656 L 9.589844 -3.347656 L 9.589844 -25.644531 L 39.570312 -25.644531 L 39.570312 -28.6875 L 9.589844 -28.6875 L 9.589844 -49.921875 L 44.820312 -49.921875 L 44.820312 -53.269531 L 6.085938 -53.269531 Z M 6.085938 0 "/></g></g></g></svg>