<svg xmlns="http://www.w3.org/2000/svg" xmlns:xlink="http://www.w3.org/1999/xlink" width="512" zoomAndPan="magnify" viewBox="0 0 384 383.999986" height="512" preserveAspectRatio="xMidYMid meet" version="1.0"><defs><g/><clipPath id="d6acbaacba"><path d="M 129.960938 89.691406 L 253.710938 89.691406 L 253.710938 203.691406 L 129.960938 203.691406 Z M 129.960938 89.691406 " clip-rule="nonzero"/></clipPath></defs><rect x="-38.4" width="460.8" fill="#ffffff" y="-38.399999" height="460.799983" fill-opacity="1"/><rect x="-38.4" width="460.8" fill="#ffffff" y="-38.399999" height="460.799983" fill-opacity="1"/><path fill="#ff914d" d="M 191.996094 113.523438 C 208.246094 113.523438 221.417969 126.699219 221.417969 142.945312 C 221.417969 159.191406 208.246094 172.363281 191.996094 172.363281 L 162.941406 172.363281 C 166.371094 170.050781 169.480469 167.527344 172.359375 164.851562 L 172.375 164.859375 C 166.359375 159.476562 162.582031 151.65625 162.582031 142.945312 C 162.582031 126.699219 175.753906 113.523438 192 113.523438 Z M 191.996094 113.523438 " fill-opacity="1" fill-rule="evenodd"/><g clip-path="url(#d6acbaacba)"><path fill="#000000" d="M 145.113281 117.832031 L 144.332031 117.832031 C 136.425781 117.832031 129.960938 124.296875 129.960938 132.203125 L 129.960938 146.136719 C 129.960938 154.0625 136.457031 160.511719 144.332031 160.511719 L 152.265625 160.511719 C 149.886719 155.136719 148.566406 149.191406 148.566406 142.941406 C 148.566406 119.03125 167.929688 99.503906 192 99.503906 C 216.066406 99.503906 235.4375 119.027344 235.4375 142.941406 C 235.4375 149.191406 234.117188 155.136719 231.738281 160.511719 C 226.386719 172.597656 215.683594 181.78125 202.640625 185.0625 C 200.511719 181.398438 196.542969 178.941406 192 178.941406 C 185.210938 178.941406 179.707031 184.441406 179.707031 191.234375 C 179.707031 198.023438 185.210938 203.527344 192 203.527344 C 197.546875 203.527344 202.234375 199.859375 203.765625 194.808594 C 221.796875 190.738281 236.351562 177.511719 242.289062 160.265625 C 248.949219 159.023438 254.039062 153.144531 254.039062 146.136719 L 254.039062 132.203125 C 254.039062 124.296875 247.570312 117.832031 239.664062 117.832031 L 238.882812 117.832031 C 229.917969 101.128906 212.285156 89.769531 191.996094 89.769531 C 171.710938 89.769531 154.078125 101.128906 145.113281 117.832031 Z M 145.113281 117.832031 " fill-opacity="1" fill-rule="evenodd"/></g><g fill="#000000" fill-opacity="1"><g transform="translate(117.54268, 252.937503)"><g><path d="M 13.953125 -5.078125 L 13.953125 -9.875 L 20.34375 -9.875 L 20.34375 -5.859375 C 20.34375 -1.628906 18.359375 0.484375 14.390625 0.484375 L 8.34375 0.484375 C 4.382812 0.484375 2.40625 -1.628906 2.40625 -5.859375 L 2.40625 -25.1875 C 2.40625 -29.40625 4.382812 -31.515625 8.34375 -31.515625 L 14.390625 -31.515625 C 18.359375 -31.515625 20.34375 -29.40625 20.34375 -25.1875 L 20.34375 -22.25 L 13.953125 -22.25 L 13.953125 -26 C 13.953125 -26.257812 13.863281 -26.484375 13.6875 -26.671875 C 13.519531 -26.859375 13.304688 -26.953125 13.046875 -26.953125 L 10.03125 -26.953125 C 9.769531 -26.953125 9.550781 -26.859375 9.375 -26.671875 C 9.195312 -26.484375 9.109375 -26.257812 9.109375 -26 L 9.109375 -5.078125 C 9.109375 -4.828125 9.195312 -4.601562 9.375 -4.40625 C 9.550781 -4.21875 9.769531 -4.125 10.03125 -4.125 L 13.046875 -4.125 C 13.304688 -4.125 13.519531 -4.21875 13.6875 -4.40625 C 13.863281 -4.601562 13.953125 -4.828125 13.953125 -5.078125 Z M 13.953125 -5.078125 "/></g></g></g><g fill="#000000" fill-opacity="1"><g transform="translate(139.514852, 252.937503)"><g><path d="M 20.671875 -25.1875 L 20.671875 -5.859375 C 20.671875 -1.628906 18.6875 0.484375 14.71875 0.484375 L 8.34375 0.484375 C 4.382812 0.484375 2.40625 -1.628906 2.40625 -5.859375 L 2.40625 -25.1875 C 2.40625 -29.40625 4.382812 -31.515625 8.34375 -31.515625 L 14.71875 -31.515625 C 18.6875 -31.515625 20.671875 -29.40625 20.671875 -25.1875 Z M 13.953125 -5.078125 L 13.953125 -26 C 13.953125 -26.257812 13.863281 -26.484375 13.6875 -26.671875 C 13.519531 -26.859375 13.304688 -26.953125 13.046875 -26.953125 L 10.03125 -26.953125 C 9.769531 -26.953125 9.550781 -26.859375 9.375 -26.671875 C 9.195312 -26.484375 9.109375 -26.257812 9.109375 -26 L 9.109375 -5.078125 C 9.109375 -4.828125 9.195312 -4.601562 9.375 -4.40625 C 9.550781 -4.21875 9.769531 -4.125 10.03125 -4.125 L 13.046875 -4.125 C 13.304688 -4.125 13.519531 -4.21875 13.6875 -4.40625 C 13.863281 -4.601562 13.953125 -4.828125 13.953125 -5.078125 Z M 13.953125 -5.078125 "/></g></g></g><g fill="#000000" fill-opacity="1"><g transform="translate(162.73435, 252.937503)"><g><path d="M 20.1875 0 L 13.484375 0 L 13.484375 -25.765625 C 13.484375 -26.015625 13.394531 -26.234375 13.21875 -26.421875 C 13.039062 -26.617188 12.820312 -26.71875 12.5625 -26.71875 L 9.984375 -26.71875 C 9.722656 -26.71875 9.503906 -26.617188 9.328125 -26.421875 C 9.148438 -26.234375 9.0625 -26.015625 9.0625 -25.765625 L 9.0625 0 L 2.34375 0 L 2.34375 -25.1875 C 2.34375 -29.40625 4.328125 -31.515625 8.296875 -31.515625 L 14.25 -31.515625 C 18.207031 -31.515625 20.1875 -29.40625 20.1875 -25.1875 Z M 20.1875 0 "/></g></g></g><g fill="#000000" fill-opacity="1"><g transform="translate(185.042337, 252.937503)"><g><path d="M 0.625 -25.328125 L 0.625 -31.03125 L 17.40625 -31.03125 L 17.40625 -25.328125 L 12.375 -25.328125 L 12.375 0 L 5.65625 0 L 5.65625 -25.328125 Z M 0.625 -25.328125 "/></g></g></g><g fill="#000000" fill-opacity="1"><g transform="translate(203.128604, 252.937503)"><g><path d="M 14.71875 -31.515625 C 18.6875 -31.515625 20.671875 -29.40625 20.671875 -25.1875 L 20.671875 0 L 13.953125 0 L 13.953125 -10.40625 L 9.109375 -10.40625 L 9.109375 0 L 2.40625 0 L 2.40625 -25.1875 C 2.40625 -29.40625 4.382812 -31.515625 8.34375 -31.515625 Z M 9.109375 -15.59375 L 13.953125 -15.59375 L 13.953125 -26 C 13.953125 -26.257812 13.863281 -26.484375 13.6875 -26.671875 C 13.519531 -26.859375 13.304688 -26.953125 13.046875 -26.953125 L 10.03125 -26.953125 C 9.769531 -26.953125 9.550781 -26.859375 9.375 -26.671875 C 9.195312 -26.484375 9.109375 -26.257812 9.109375 -26 Z M 9.109375 -15.59375 "/></g></g></g><g fill="#000000" fill-opacity="1"><g transform="translate(226.396078, 252.937503)"><g><path d="M 13.953125 -5.078125 L 13.953125 -9.875 L 20.34375 -9.875 L 20.34375 -5.859375 C 20.34375 -1.628906 18.359375 0.484375 14.390625 0.484375 L 8.34375 0.484375 C 4.382812 0.484375 2.40625 -1.628906 2.40625 -5.859375 L 2.40625 -25.1875 C 2.40625 -29.40625 4.382812 -31.515625 8.34375 -31.515625 L 14.390625 -31.515625 C 18.359375 -31.515625 20.34375 -29.40625 20.34375 -25.1875 L 20.34375 -22.25 L 13.953125 -22.25 L 13.953125 -26 C 13.953125 -26.257812 13.863281 -26.484375 13.6875 -26.671875 C 13.519531 -26.859375 13.304688 -26.953125 13.046875 -26.953125 L 10.03125 -26.953125 C 9.769531 -26.953125 9.550781 -26.859375 9.375 -26.671875 C 9.195312 -26.484375 9.109375 -26.257812 9.109375 -26 L 9.109375 -5.078125 C 9.109375 -4.828125 9.195312 -4.601562 9.375 -4.40625 C 9.550781 -4.21875 9.769531 -4.125 10.03125 -4.125 L 13.046875 -4.125 C 13.304688 -4.125 13.519531 -4.21875 13.6875 -4.40625 C 13.863281 -4.601562 13.953125 -4.828125 13.953125 -5.078125 Z M 13.953125 -5.078125 "/></g></g></g><g fill="#000000" fill-opacity="1"><g transform="translate(248.36825, 252.937503)"><g><path d="M 0.625 -25.328125 L 0.625 -31.03125 L 17.40625 -31.03125 L 17.40625 -25.328125 L 12.375 -25.328125 L 12.375 0 L 5.65625 0 L 5.65625 -25.328125 Z M 0.625 -25.328125 "/></g></g></g><g fill="#ff914d" fill-opacity="1"><g transform="translate(179.207616, 287.588017)"><g><path d="M 6.609375 -15.21875 L 9.90625 -15.21875 L 9.90625 -2.875 C 9.90625 -0.800781 8.929688 0.234375 6.984375 0.234375 L 4.0625 0.234375 C 2.125 0.234375 1.15625 -0.800781 1.15625 -2.875 L 1.15625 -15.21875 L 4.4375 -15.21875 L 4.4375 -2.59375 C 4.4375 -2.46875 4.476562 -2.351562 4.5625 -2.25 C 4.65625 -2.15625 4.765625 -2.109375 4.890625 -2.109375 L 6.15625 -2.109375 C 6.28125 -2.109375 6.382812 -2.15625 6.46875 -2.25 C 6.5625 -2.351562 6.609375 -2.46875 6.609375 -2.59375 Z M 6.609375 -15.21875 "/></g></g></g><g fill="#ff914d" fill-opacity="1"><g transform="translate(194.018366, 287.588017)"><g><path d="M 9.625 -11.21875 L 6.484375 -11.21875 L 6.484375 -12.421875 C 6.484375 -12.546875 6.441406 -12.65625 6.359375 -12.75 C 6.273438 -12.84375 6.171875 -12.890625 6.046875 -12.890625 L 4.75 -12.890625 C 4.625 -12.890625 4.515625 -12.84375 4.421875 -12.75 C 4.335938 -12.65625 4.296875 -12.546875 4.296875 -12.421875 L 4.296875 -9.71875 C 4.296875 -9.59375 4.335938 -9.476562 4.421875 -9.375 C 4.515625 -9.28125 4.625 -9.234375 4.75 -9.234375 L 6.859375 -9.234375 C 8.804688 -9.203125 9.78125 -8.171875 9.78125 -6.140625 L 9.78125 -2.875 C 9.78125 -0.800781 8.804688 0.234375 6.859375 0.234375 L 4.09375 0.234375 C 2.144531 0.234375 1.171875 -0.800781 1.171875 -2.875 L 1.171875 -4.4375 L 4.296875 -4.4375 L 4.296875 -2.75 C 4.296875 -2.625 4.335938 -2.515625 4.421875 -2.421875 C 4.515625 -2.328125 4.625 -2.28125 4.75 -2.28125 L 6.203125 -2.28125 C 6.328125 -2.28125 6.429688 -2.328125 6.515625 -2.421875 C 6.609375 -2.515625 6.65625 -2.625 6.65625 -2.75 L 6.65625 -5.734375 C 6.65625 -5.859375 6.609375 -5.96875 6.515625 -6.0625 C 6.429688 -6.15625 6.328125 -6.203125 6.203125 -6.203125 L 4.09375 -6.203125 C 2.144531 -6.203125 1.171875 -7.238281 1.171875 -9.3125 L 1.171875 -12.34375 C 1.171875 -14.414062 2.144531 -15.453125 4.09375 -15.453125 L 6.703125 -15.453125 C 8.648438 -15.453125 9.625 -14.414062 9.625 -12.34375 Z M 9.625 -11.21875 "/></g></g></g></svg>